<?xml version="1.0" standalone="no"?>
<!DOCTYPE svg PUBLIC "-//W3C//DTD SVG 20010904//EN"
 "http://www.w3.org/TR/2001/REC-SVG-20010904/DTD/svg10.dtd">
<svg version="1.0" xmlns="http://www.w3.org/2000/svg"
 width="260.000000pt" height="260.000000pt" viewBox="0 0 260.000000 260.000000"
 preserveAspectRatio="xMidYMid meet">
<metadata>
Created by potrace 1.14, written by Peter Selinger 2001-2017
</metadata>
<g transform="translate(0.000000,260.000000) scale(0.100000,-0.100000)"
fill="#000000" stroke="none">
<path d="M2456 2436 c-14 -27 -16 -28 -11 -6 3 14 2 19 -1 12 -3 -6 -10 -10
-14 -7 -5 3 -7 -3 -5 -14 3 -15 0 -18 -12 -14 -11 4 -14 2 -9 -5 4 -7 1 -12
-8 -12 -9 0 -16 -3 -16 -7 0 -5 -18 -27 -39 -50 -29 -31 -36 -44 -27 -54 8 -9
8 -10 -2 -5 -8 5 -29 -9 -57 -37 -43 -42 -58 -67 -33 -51 7 4 8 3 4 -5 -4 -6
-11 -9 -16 -6 -11 7 -60 -34 -60 -51 0 -9 -5 -12 -12 -8 -7 5 -9 2 -5 -9 4
-12 2 -14 -11 -10 -9 3 -14 3 -10 -1 8 -9 -27 -46 -43 -46 -6 0 -9 -7 -6 -14
4 -10 1 -13 -9 -9 -10 4 -17 -2 -21 -16 -3 -11 -12 -21 -20 -21 -8 0 -11 -4
-8 -10 3 -5 -1 -10 -9 -10 -9 0 -16 -7 -16 -15 0 -8 -3 -14 -7 -13 -12 4 -53
-35 -47 -44 3 -4 0 -8 -7 -8 -14 0 -59 -46 -59 -61 0 -5 -3 -8 -8 -6 -11 3
-82 -65 -82 -80 0 -7 -3 -12 -7 -11 -18 3 -41 -15 -36 -28 3 -9 -1 -14 -12
-14 -9 0 -13 -4 -10 -10 3 -5 0 -10 -7 -10 -16 0 -88 -73 -88 -89 0 -7 -3 -10
-7 -8 -10 5 -93 -80 -85 -87 3 -3 -2 -6 -11 -6 -9 0 -17 -5 -17 -11 0 -16 -26
-39 -35 -31 -5 4 -5 -2 -1 -13 4 -11 4 -16 0 -12 -10 10 -184 -174 -177 -186
3 -6 1 -7 -5 -3 -6 3 -26 -8 -45 -26 -65 -63 -71 -67 -98 -52 -14 7 -35 26
-48 43 -13 17 -27 28 -32 26 -4 -3 -10 4 -14 15 -3 11 -13 20 -21 20 -8 0 -12
5 -9 10 6 9 -8 14 -28 11 -5 -1 -6 3 -3 8 8 12 -23 43 -35 35 -5 -3 -9 -2 -8
3 4 25 -3 35 -20 30 -14 -3 -18 -1 -14 10 6 16 -90 116 -102 105 -5 -4 -5 -2
-1 5 7 13 -43 65 -56 57 -4 -3 -5 2 -2 10 4 10 1 16 -9 16 -9 0 -19 9 -22 20
-6 18 -17 25 -38 21 -5 -1 -6 3 -2 8 7 12 -25 51 -42 51 -7 0 -12 3 -12 8 3
17 -1 35 -7 29 -3 -3 -17 7 -31 24 -14 16 -28 27 -33 24 -4 -3 -7 3 -6 13 1
11 -7 18 -23 20 -13 2 -20 7 -14 10 6 4 2 15 -10 27 -11 11 -17 15 -13 8 3 -6
1 -15 -5 -19 -8 -4 -9 -3 -5 4 4 7 3 12 -2 12 -6 0 -9 8 -8 18 0 10 -6 16 -16
16 -10 -1 -16 2 -13 6 3 5 -6 17 -20 28 -13 11 -21 23 -17 27 4 5 1 5 -6 1 -7
-4 -12 -1 -12 9 0 9 -4 14 -9 11 -5 -3 -11 1 -15 9 -3 8 -12 15 -21 15 -8 0
-14 3 -13 8 4 13 -26 52 -40 52 -7 0 -10 5 -6 11 4 8 -1 9 -17 5 -13 -3 -18
-3 -11 0 6 3 12 10 12 15 0 6 -5 7 -10 4 -6 -3 -10 -1 -10 5 0 6 -12 23 -27
38 -15 15 -20 18 -12 7 13 -18 13 -19 -3 -6 -10 7 -18 23 -18 35 -1 21 -1 21
-16 1 -16 -19 -16 -19 -9 5 5 19 4 21 -4 10 -15 -21 -12 -142 3 -133 8 5 8 3
0 -8 -16 -20 -16 -598 0 -618 7 -9 7 -12 0 -9 -7 5 -10 -38 -10 -138 1 -79 5
-144 10 -144 4 0 4 -6 -1 -12 -11 -16 -10 -108 1 -127 6 -8 5 -12 0 -8 -13 8
-12 -466 1 -475 7 -5 6 -8 0 -8 -7 0 -11 -43 -10 -116 0 -64 -3 -118 -7 -120
-7 -5 -5 -24 7 -59 6 -16 5 -17 -4 -5 -9 13 -11 13 -12 -2 -6 -70 -1 -74 91
-73 44 0 80 -3 80 -6 0 -4 17 -3 37 1 20 5 44 5 52 1 9 -5 25 -7 36 -5 11 3
34 4 50 4 68 1 142 0 165 -1 14 0 41 0 60 0 19 1 51 1 70 0 19 -1 40 -1 45 0
57 6 97 5 101 -1 3 -5 13 -4 22 1 9 4 26 7 37 4 36 -7 87 -9 90 -2 4 6 102 2
122 -5 7 -3 15 -2 17 3 5 8 71 5 86 -4 6 -3 10 -2 10 2 0 12 124 10 132 -2 5
-6 8 -6 8 1 0 15 102 13 112 -1 5 -6 8 -6 8 2 0 10 49 11 96 2 5 -1 11 0 14 1
16 8 70 5 70 -4 0 -7 3 -8 8 -1 8 12 122 14 122 2 0 -4 8 -4 18 1 9 4 28 7 42
5 31 -4 83 -6 90 -3 14 5 79 5 108 -1 17 -4 34 -4 36 0 3 5 71 6 71 1 0 -1 12
-3 27 -4 14 -1 25 1 23 5 -4 5 65 4 73 -2 3 -2 41 -2 45 1 1 1 22 4 47 6 25 3
47 9 48 14 2 6 8 8 13 4 5 -3 10 4 10 15 1 12 2 27 3 34 1 6 -3 15 -9 19 -6 5
-6 8 3 8 6 0 12 9 12 20 0 14 -5 18 -17 14 -16 -5 -16 -4 -3 8 8 7 16 27 16
45 2 25 -2 30 -15 26 -14 -4 -14 -3 2 10 20 16 23 32 5 21 -10 -6 -10 -4 -2 7
8 9 11 56 10 129 -1 63 2 123 6 132 6 12 3 20 -9 27 -10 6 -12 11 -5 11 6 0
12 5 12 11 0 5 -6 7 -12 3 -10 -6 -10 -4 0 8 7 9 10 29 7 47 -4 21 -1 31 7 31
10 0 10 2 -1 9 -10 6 -10 13 -2 29 8 16 7 21 -5 26 -13 5 -14 9 -4 21 7 8 10
22 6 30 -3 8 0 15 7 15 8 0 7 3 -2 9 -13 8 -13 12 0 27 8 10 9 15 2 11 -8 -5
-11 0 -10 13 1 11 6 20 11 20 16 0 0 10 -24 15 -12 2 -25 7 -29 10 -3 4 6 4
21 1 23 -4 26 -1 24 25 -1 16 3 31 8 33 6 2 5 5 -2 5 -7 1 -10 6 -7 11 3 6 1
10 -4 10 -6 0 -11 5 -11 11 0 5 5 7 11 3 6 -4 9 1 8 12 -2 11 0 24 4 31 4 6 2
15 -4 19 -8 5 -9 3 -4 -6 5 -9 4 -11 -4 -6 -9 6 -9 11 0 22 6 7 9 21 5 29 -3
8 0 15 7 15 8 0 8 3 2 8 -12 8 -12 62 -1 80 3 6 1 14 -5 18 -7 4 -9 3 -5 -4 7
-12 -32 -8 -43 4 -3 4 2 4 11 1 20 -7 42 17 34 38 -3 8 0 15 7 15 8 0 8 3 2 8
-12 8 -12 62 -1 80 3 6 1 14 -5 18 -7 4 -9 3 -5 -4 7 -12 -32 -8 -43 4 -3 4 2
4 11 1 20 -7 42 17 35 38 -4 8 -1 17 5 21 7 5 5 12 -7 21 -11 7 -14 13 -8 13
6 0 14 7 17 16 6 15 4 15 -10 3 -16 -13 -16 -12 0 19 9 17 12 32 6 32 -5 0
-10 -5 -10 -12 0 -6 -3 -8 -6 -5 -4 4 -1 13 6 22 7 8 10 21 7 29 -3 7 0 19 6
26 9 10 9 11 0 6 -7 -4 -13 -3 -13 1 0 5 6 15 13 22 10 11 10 13 0 7 -7 -4
-13 -3 -13 1 0 5 6 15 13 22 10 11 8 12 -10 6 -15 -4 -23 -2 -23 5 0 6 4 9 9
5 5 -3 13 0 16 5 11 17 13 60 4 60 -5 0 -9 -5 -9 -12 0 -6 -3 -8 -7 -5 -3 4 0
15 8 24 18 22 18 65 0 87 -11 13 -12 19 -2 29 10 9 11 8 6 -5 -4 -10 -3 -18 2
-18 5 0 8 16 8 35 0 30 -3 34 -20 30 -19 -5 -19 -5 2 10 17 14 20 21 13 46 -6
19 -5 29 2 29 18 0 3 10 -22 15 -12 2 -25 7 -29 10 -3 4 6 4 20 2 23 -5 25 -2
26 34 0 24 -3 36 -10 32 -6 -4 -7 -1 -1 8 10 16 15 141 5 135 -3 -2 -6 7 -6
20 0 13 3 24 6 24 3 0 6 7 6 15 0 10 -6 14 -16 10 -14 -4 -14 -4 -1 7 15 13
20 71 7 84 -17 17 -35 10 -51 -20z m51 -1 c5 -4 2 -5 -6 0 -10 6 -13 4 -9 -6
4 -10 -1 -15 -13 -15 -12 0 -15 4 -9 12 6 6 7 13 4 17 -3 3 1 4 10 3 8 -1 19
-6 23 -11z m-110 -66 c-9 -6 -14 -15 -11 -21 4 -7 2 -8 -5 -4 -14 9 3 36 23
36 6 0 3 -5 -7 -11z m-31 -41 c4 -7 3 -8 -4 -4 -7 4 -12 2 -12 -5 0 -7 -3 -10
-6 -6 -6 5 3 27 11 27 2 0 7 -5 11 -12z m138 -90 c-3 -4 -11 -5 -19 -1 -21 7
-19 12 4 10 11 0 18 -5 15 -9z m10 -224 c3 -8 2 -12 -4 -9 -6 3 -10 10 -10 16
0 14 7 11 14 -7z m-2224 -34 c0 -5 -5 -10 -11 -10 -5 0 -7 5 -4 10 3 6 8 10
11 10 2 0 4 -4 4 -10z m2223 -135 c-3 -9 -8 -14 -10 -11 -3 3 -2 9 2 15 9 16
15 13 8 -4z m-1943 -145 c0 -5 -5 -10 -11 -10 -5 0 -7 5 -4 10 3 6 8 10 11 10
2 0 4 -4 4 -10z m1934 -58 c3 -5 -1 -9 -9 -9 -8 0 -12 4 -9 9 3 4 7 8 9 8 2 0
6 -4 9 -8z m-10 -120 c3 -5 -1 -9 -9 -9 -8 0 -12 4 -9 9 3 4 7 8 9 8 2 0 6 -4
9 -8z m10 -40 c3 -5 -1 -9 -9 -9 -8 0 -12 4 -9 9 3 4 7 8 9 8 2 0 6 -4 9 -8z
m0 -160 c3 -5 -1 -9 -9 -9 -8 0 -12 4 -9 9 3 4 7 8 9 8 2 0 6 -4 9 -8z m0
-160 c3 -5 -1 -9 -9 -9 -8 0 -12 4 -9 9 3 4 7 8 9 8 2 0 6 -4 9 -8z m-14 -42
c0 -5 -2 -10 -4 -10 -3 0 -8 5 -11 10 -3 6 -1 10 4 10 6 0 11 -4 11 -10z m14
-118 c3 -5 -1 -9 -9 -9 -8 0 -12 4 -9 9 3 4 7 8 9 8 2 0 6 -4 9 -8z m0 -160
c3 -5 -1 -9 -9 -9 -8 0 -12 4 -9 9 3 4 7 8 9 8 2 0 6 -4 9 -8z m1 -62 c3 -5 1
-10 -4 -10 -6 0 -11 5 -11 10 0 6 2 10 4 10 3 0 8 -4 11 -10z m5 -180 c0 -5
-5 -10 -11 -10 -5 0 -7 5 -4 10 3 6 8 10 11 10 2 0 4 -4 4 -10z m0 -40 c0 -5
-2 -10 -4 -10 -3 0 -8 5 -11 10 -3 6 -1 10 4 10 6 0 11 -4 11 -10z m-6 -82
c-3 -4 -11 -5 -19 -1 -21 7 -19 12 4 10 11 0 18 -5 15 -9z m1 -98 c3 -5 1 -10
-4 -10 -6 0 -11 5 -11 10 0 6 2 10 4 10 3 0 8 -4 11 -10z m-11 -218 c3 -5 -1
-9 -9 -9 -8 0 -12 4 -9 9 3 4 7 8 9 8 2 0 6 -4 9 -8z"/>
</g>
</svg>
